# xmcd CD database file
#
# Track frame offsets:
#	150
#	18533
#	36287
#	51833
#	81838
#	94706
#	115130
#	134477
#	151351
#	171935
#	186803
#	204695
#	222641
#
# Disc length: 3238 seconds
#
# Revision: 0
# Processed by: cddbd v1.5.2PL0 Copyright (c) Steve Scherf et al.
# Submitted via: CDex 1.51
#
DISCID=bc0ca40d
DTITLE=Lincoln Center Jazz Orchestra/Wynton Marsalis - Cast of Cats
DYEAR=2003
DGENRE=Jazz
TTITLE0=Raise Yo' Hands
TTITLE1=This I Believe
TTITLE2=Chocolate Cherries
TTITLE3=Gentleness
TTITLE4=Quilt Tilt
TTITLE5=Big Butter
TTITLE6=The Bridge Maker
TTITLE7=Tricky
TTITLE8=Let Us Pray
TTITLE9=Extra Celestial
TTITLE10=Side Gliding
TTITLE11=Soul Horn Song
TTITLE12=In the Heat of Battle
EXTD=YEAR: 2003
EXTT0=
EXTT1=
EXTT2=
EXTT3=
EXTT4=
EXTT5=
EXTT6=
EXTT7=
EXTT8=
EXTT9=
EXTT10=
EXTT11=
EXTT12=
PLAYORDER=
